<svg width="80" height="140" viewBox="0 0 80 140" fill="none" xmlns="http://www.w3.org/2000/svg">
<rect width="80" height="140" rx="40" fill="white"/>
<path d="M36.9141 41H33.293V31.0859C33.293 30.8125 33.2969 30.4766 33.3047 30.0781C33.3125 29.6719 33.3242 29.2578 33.3398 28.8359C33.3555 28.4062 33.3711 28.0195 33.3867 27.6758C33.3008 27.7773 33.125 27.9531 32.8594 28.2031C32.6016 28.4453 32.3594 28.6641 32.1328 28.8594L30.1641 30.4414L28.418 28.2617L33.9375 23.8672H36.9141V41ZM45.9688 38.8398C45.9688 39.3366 45.848 39.7559 45.6064 40.0977C45.3649 40.4395 45.0117 40.6992 44.5469 40.877C44.0866 41.0501 43.5215 41.1367 42.8516 41.1367C42.3229 41.1367 41.8672 41.098 41.4844 41.0205C41.1061 40.9476 40.7484 40.8337 40.4111 40.6787V39.291C40.7712 39.4596 41.1745 39.6055 41.6211 39.7285C42.0723 39.8516 42.4984 39.9131 42.8994 39.9131C43.4281 39.9131 43.8086 39.8311 44.041 39.667C44.2734 39.4984 44.3896 39.2751 44.3896 38.9971C44.3896 38.833 44.3418 38.6872 44.2461 38.5596C44.1549 38.4274 43.9818 38.293 43.7266 38.1562C43.4759 38.015 43.1068 37.8464 42.6191 37.6504C42.1406 37.459 41.7373 37.2676 41.4092 37.0762C41.0811 36.8848 40.8327 36.6546 40.6641 36.3857C40.4954 36.1123 40.4111 35.7637 40.4111 35.3398C40.4111 34.6699 40.6755 34.1618 41.2041 33.8154C41.7373 33.4645 42.4414 33.2891 43.3164 33.2891C43.7812 33.2891 44.2188 33.3369 44.6289 33.4326C45.0436 33.5238 45.4492 33.6582 45.8457 33.8359L45.3398 35.0459C44.998 34.8955 44.654 34.7725 44.3076 34.6768C43.9658 34.5765 43.6172 34.5264 43.2617 34.5264C42.847 34.5264 42.5303 34.5902 42.3115 34.7178C42.0973 34.8454 41.9902 35.0277 41.9902 35.2646C41.9902 35.4424 42.0426 35.5928 42.1475 35.7158C42.2523 35.8389 42.4323 35.9619 42.6875 36.085C42.9473 36.208 43.3073 36.3607 43.7676 36.543C44.2188 36.7161 44.6084 36.8984 44.9365 37.0898C45.2692 37.2767 45.5244 37.5068 45.7021 37.7803C45.8799 38.0537 45.9688 38.4069 45.9688 38.8398ZM50.5215 39.8379C50.7311 39.8379 50.9385 39.8197 51.1436 39.7832C51.3486 39.7422 51.5355 39.6943 51.7041 39.6396V40.8564C51.5264 40.9339 51.2962 41 51.0137 41.0547C50.7311 41.1094 50.4372 41.1367 50.1318 41.1367C49.7035 41.1367 49.3184 41.0661 48.9766 40.9248C48.6348 40.779 48.3636 40.5306 48.1631 40.1797C47.9626 39.8288 47.8623 39.3434 47.8623 38.7236V34.6562H46.8301V33.9385L47.9375 33.3711L48.4639 31.751H49.4756V33.4326H51.6426V34.6562H49.4756V38.7031C49.4756 39.0859 49.5713 39.3708 49.7627 39.5576C49.9541 39.7445 50.207 39.8379 50.5215 39.8379Z" fill="url(#paint0_linear_914_1368)"/>
<defs>
<linearGradient id="paint0_linear_914_1368" x1="27" y1="16" x2="58.3224" y2="41.4494" gradientUnits="userSpaceOnUse">
<stop stop-color="#001908"/>
<stop offset="1" stop-color="#7948FF"/>
</linearGradient>
</defs>
</svg>
