<svg width="80" height="112" viewBox="0 0 80 112" fill="none" xmlns="http://www.w3.org/2000/svg">
<rect width="80" height="112" rx="40" fill="white"/>
<path d="M37.4375 41H25.4609V38.4805L29.7617 34.1328C30.6289 33.2422 31.3242 32.5 31.8477 31.9062C32.3789 31.3047 32.7617 30.7578 32.9961 30.2656C33.2383 29.7734 33.3594 29.2461 33.3594 28.6836C33.3594 28.0039 33.168 27.4961 32.7852 27.1602C32.4102 26.8164 31.9062 26.6445 31.2734 26.6445C30.6094 26.6445 29.9648 26.7969 29.3398 27.1016C28.7148 27.4062 28.0625 27.8398 27.3828 28.4023L25.4141 26.0703C25.9062 25.6484 26.4258 25.25 26.9727 24.875C27.5273 24.5 28.168 24.1992 28.8945 23.9727C29.6289 23.7383 30.5078 23.6211 31.5312 23.6211C32.6562 23.6211 33.6211 23.8242 34.4258 24.2305C35.2383 24.6367 35.8633 25.1914 36.3008 25.8945C36.7383 26.5898 36.957 27.3789 36.957 28.2617C36.957 29.207 36.7695 30.0703 36.3945 30.8516C36.0195 31.6328 35.4727 32.4062 34.7539 33.1719C34.043 33.9375 33.1836 34.7852 32.1758 35.7148L29.9727 37.7891V37.9531H37.4375V41ZM42.3271 33.2891C43.1794 33.2891 43.8424 33.5101 44.3164 33.9521C44.7949 34.3896 45.0342 35.0938 45.0342 36.0645V41H43.4277V36.3652C43.4277 35.7773 43.307 35.3376 43.0654 35.0459C42.8239 34.7497 42.4502 34.6016 41.9443 34.6016C41.2106 34.6016 40.7002 34.8271 40.4131 35.2783C40.1305 35.7295 39.9893 36.3835 39.9893 37.2402V41H38.3828V33.4326H39.6338L39.8594 34.458H39.9482C40.1123 34.1937 40.3151 33.9772 40.5566 33.8086C40.8027 33.6354 41.0762 33.5055 41.377 33.4189C41.6823 33.3324 41.999 33.2891 42.3271 33.2891ZM49.8262 41.1367C48.9238 41.1367 48.1992 40.8086 47.6523 40.1523C47.11 39.4915 46.8389 38.5186 46.8389 37.2334C46.8389 35.9346 47.1146 34.9525 47.666 34.2871C48.222 33.6217 48.9535 33.2891 49.8604 33.2891C50.2432 33.2891 50.5781 33.3415 50.8652 33.4463C51.1523 33.5465 51.3984 33.6833 51.6035 33.8564C51.8132 34.0296 51.9909 34.2233 52.1367 34.4375H52.2119C52.1891 34.2962 52.1618 34.0934 52.1299 33.8291C52.1025 33.5602 52.0889 33.3118 52.0889 33.084V30.3633H53.7021V41H52.4443L52.1572 39.9678H52.0889C51.9521 40.1865 51.779 40.3848 51.5693 40.5625C51.3643 40.7357 51.1182 40.8747 50.8311 40.9795C50.5485 41.0843 50.2135 41.1367 49.8262 41.1367ZM50.2773 39.8311C50.9655 39.8311 51.4508 39.6328 51.7334 39.2363C52.016 38.8398 52.1618 38.2451 52.1709 37.4521V37.2402C52.1709 36.3926 52.0342 35.7432 51.7607 35.292C51.4873 34.8363 50.9883 34.6084 50.2637 34.6084C49.6849 34.6084 49.2428 34.8431 48.9375 35.3125C48.6367 35.7773 48.4863 36.4268 48.4863 37.2607C48.4863 38.0947 48.6367 38.7327 48.9375 39.1748C49.2428 39.6123 49.6895 39.8311 50.2773 39.8311Z" fill="url(#paint0_linear_914_1395)"/>
<defs>
<linearGradient id="paint0_linear_914_1395" x1="24.5" y1="16" x2="56.4839" y2="46.9844" gradientUnits="userSpaceOnUse">
<stop stop-color="#001908"/>
<stop offset="1" stop-color="#7948FF"/>
</linearGradient>
</defs>
</svg>
