<svg width="80" height="104" viewBox="0 0 80 104" fill="none" xmlns="http://www.w3.org/2000/svg">
<rect width="80" height="104" rx="40" fill="white"/>
<path d="M38.2695 27.6992C38.2695 28.4883 38.1055 29.1719 37.7773 29.75C37.4492 30.3281 37.0039 30.8008 36.4414 31.168C35.8867 31.5352 35.2617 31.8047 34.5664 31.9766V32.0469C35.9414 32.2188 36.9844 32.6406 37.6953 33.3125C38.4141 33.9844 38.7734 34.8828 38.7734 36.0078C38.7734 37.0078 38.5273 37.9023 38.0352 38.6914C37.5508 39.4805 36.8008 40.1016 35.7852 40.5547C34.7695 41.0078 33.4609 41.2344 31.8594 41.2344C30.9141 41.2344 30.0312 41.1562 29.2109 41C28.3984 40.8516 27.6328 40.6211 26.9141 40.3086V37.2266C27.6484 37.6016 28.418 37.8867 29.2227 38.082C30.0273 38.2695 30.7773 38.3633 31.4727 38.3633C32.7695 38.3633 33.6758 38.1406 34.1914 37.6953C34.7148 37.2422 34.9766 36.6094 34.9766 35.7969C34.9766 35.3203 34.8555 34.918 34.6133 34.5898C34.3711 34.2617 33.9492 34.0117 33.3477 33.8398C32.7539 33.668 31.9219 33.582 30.8516 33.582H29.5508V30.8047H30.875C31.9297 30.8047 32.7305 30.707 33.2773 30.5117C33.832 30.3086 34.207 30.0352 34.4023 29.6914C34.6055 29.3398 34.707 28.9414 34.707 28.4961C34.707 27.8867 34.5195 27.4102 34.1445 27.0664C33.7695 26.7227 33.1445 26.5508 32.2695 26.5508C31.7227 26.5508 31.2227 26.6211 30.7695 26.7617C30.3242 26.8945 29.9219 27.0586 29.5625 27.2539C29.2031 27.4414 28.8867 27.625 28.6133 27.8047L26.9375 25.3086C27.6094 24.8242 28.3945 24.4219 29.293 24.1016C30.1992 23.7812 31.2773 23.6211 32.5273 23.6211C34.293 23.6211 35.6914 23.9766 36.7227 24.6875C37.7539 25.3984 38.2695 26.4023 38.2695 27.6992ZM43.7178 33.2891C43.8454 33.2891 43.9844 33.2959 44.1348 33.3096C44.2852 33.3232 44.415 33.3415 44.5244 33.3643L44.374 34.8682C44.2783 34.8408 44.1598 34.8203 44.0186 34.8066C43.8818 34.793 43.7588 34.7861 43.6494 34.7861C43.3623 34.7861 43.0889 34.834 42.8291 34.9297C42.5693 35.0208 42.3392 35.1621 42.1387 35.3535C41.9382 35.5404 41.7809 35.7751 41.667 36.0576C41.5531 36.3402 41.4961 36.6683 41.4961 37.042V41H39.8828V33.4326H41.1406L41.3594 34.7656H41.4346C41.585 34.4967 41.7718 34.2507 41.9951 34.0273C42.2184 33.804 42.4736 33.6263 42.7607 33.4941C43.0524 33.3574 43.3714 33.2891 43.7178 33.2891ZM48.4688 41.1367C47.5664 41.1367 46.8418 40.8086 46.2949 40.1523C45.7526 39.4915 45.4814 38.5186 45.4814 37.2334C45.4814 35.9346 45.7572 34.9525 46.3086 34.2871C46.8646 33.6217 47.596 33.2891 48.5029 33.2891C48.8857 33.2891 49.2207 33.3415 49.5078 33.4463C49.7949 33.5465 50.041 33.6833 50.2461 33.8564C50.4557 34.0296 50.6335 34.2233 50.7793 34.4375H50.8545C50.8317 34.2962 50.8044 34.0934 50.7725 33.8291C50.7451 33.5602 50.7314 33.3118 50.7314 33.084V30.3633H52.3447V41H51.0869L50.7998 39.9678H50.7314C50.5947 40.1865 50.4215 40.3848 50.2119 40.5625C50.0068 40.7357 49.7607 40.8747 49.4736 40.9795C49.1911 41.0843 48.8561 41.1367 48.4688 41.1367ZM48.9199 39.8311C49.6081 39.8311 50.0934 39.6328 50.376 39.2363C50.6585 38.8398 50.8044 38.2451 50.8135 37.4521V37.2402C50.8135 36.3926 50.6768 35.7432 50.4033 35.292C50.1299 34.8363 49.6309 34.6084 48.9062 34.6084C48.3275 34.6084 47.8854 34.8431 47.5801 35.3125C47.2793 35.7773 47.1289 36.4268 47.1289 37.2607C47.1289 38.0947 47.2793 38.7327 47.5801 39.1748C47.8854 39.6123 48.332 39.8311 48.9199 39.8311Z" fill="url(#paint0_linear_914_1377)"/>
<defs>
<linearGradient id="paint0_linear_914_1377" x1="26" y1="16" x2="57.7168" y2="43.7522" gradientUnits="userSpaceOnUse">
<stop stop-color="#001908"/>
<stop offset="1" stop-color="#7948FF"/>
</linearGradient>
</defs>
</svg>
