<svg width="24" height="24" viewBox="0 0 24 24" fill="none" xmlns="http://www.w3.org/2000/svg">
<path fill-rule="evenodd" clip-rule="evenodd" d="M2.08936 6.447C2.08936 3.996 4.1015 2 6.57357 2H11.4905C13.9575 2 15.9646 3.99 15.9646 6.437V17.553C15.9646 20.005 13.9525 22 11.4794 22H6.56449C4.09646 22 2.08936 20.01 2.08936 17.563V16.623V6.447Z" fill="#CDCDD0"/>
<path fill-rule="evenodd" clip-rule="evenodd" d="M21.6919 11.455L18.8714 8.54604C18.5799 8.24604 18.1108 8.24604 17.8203 8.54804C17.5307 8.85004 17.5317 9.33704 17.8222 9.63704L19.3676 11.23H17.8859H9.57038C9.16016 11.23 8.82715 11.575 8.82715 12C8.82715 12.426 9.16016 12.77 9.57038 12.77H19.3676L17.8222 14.363C17.5317 14.663 17.5307 15.15 17.8203 15.452C17.966 15.603 18.1562 15.679 18.3473 15.679C18.5365 15.679 18.7267 15.603 18.8714 15.454L21.6919 12.546C21.8318 12.401 21.911 12.205 21.911 12C21.911 11.796 21.8318 11.6 21.6919 11.455Z" fill="#040415"/>
</svg>
