<svg width="393" height="415" viewBox="0 0 393 415" fill="none" xmlns="http://www.w3.org/2000/svg"> <rect x="117" y="198" width="158" height="29" rx="5" fill="#171F1D"/> <path d="M140.112 215.018C140.112 215.441 140.01 215.809 139.805 216.121C139.6 216.434 139.3 216.674 138.906 216.844C138.516 217.013 138.04 217.098 137.48 217.098C137.233 217.098 136.991 217.081 136.753 217.049C136.519 217.016 136.292 216.969 136.074 216.907C135.859 216.842 135.654 216.762 135.459 216.668V215.262C135.798 215.411 136.149 215.547 136.514 215.667C136.878 215.787 137.24 215.848 137.598 215.848C137.845 215.848 138.044 215.815 138.193 215.75C138.346 215.685 138.457 215.595 138.525 215.481C138.594 215.368 138.628 215.237 138.628 215.091C138.628 214.912 138.568 214.759 138.447 214.632C138.327 214.505 138.161 214.386 137.949 214.275C137.741 214.165 137.505 214.046 137.241 213.919C137.075 213.841 136.895 213.746 136.699 213.636C136.504 213.522 136.318 213.383 136.143 213.221C135.967 213.058 135.822 212.861 135.708 212.63C135.597 212.396 135.542 212.116 135.542 211.79C135.542 211.364 135.64 210.999 135.835 210.696C136.03 210.394 136.309 210.162 136.67 210.003C137.035 209.84 137.464 209.759 137.959 209.759C138.33 209.759 138.683 209.803 139.019 209.891C139.357 209.975 139.71 210.099 140.078 210.262L139.59 211.438C139.261 211.305 138.966 211.202 138.706 211.131C138.446 211.056 138.18 211.019 137.91 211.019C137.721 211.019 137.56 211.049 137.427 211.111C137.293 211.17 137.192 211.255 137.124 211.365C137.056 211.473 137.021 211.598 137.021 211.741C137.021 211.91 137.07 212.054 137.168 212.171C137.269 212.285 137.419 212.396 137.617 212.503C137.819 212.61 138.07 212.736 138.369 212.879C138.734 213.051 139.045 213.232 139.302 213.421C139.562 213.606 139.762 213.826 139.902 214.08C140.042 214.331 140.112 214.643 140.112 215.018ZM146.518 217H142.406V209.861H146.518V211.102H143.92V212.669H146.337V213.909H143.92V215.75H146.518V217ZM151.766 217H150.252V211.121H148.313V209.861H153.704V211.121H151.766V217ZM161.681 209.861C162.602 209.861 163.274 210.06 163.697 210.457C164.12 210.851 164.332 211.395 164.332 212.088C164.332 212.4 164.285 212.7 164.19 212.986C164.096 213.27 163.941 213.522 163.727 213.743C163.515 213.965 163.232 214.14 162.877 214.271C162.522 214.397 162.084 214.461 161.563 214.461H160.914V217H159.4V209.861H161.681ZM161.603 211.102H160.914V213.221H161.412C161.695 213.221 161.941 213.183 162.149 213.108C162.358 213.034 162.519 212.916 162.633 212.757C162.747 212.597 162.804 212.392 162.804 212.142C162.804 211.79 162.706 211.53 162.511 211.36C162.315 211.188 162.013 211.102 161.603 211.102ZM168.76 209.861C169.408 209.861 169.941 209.939 170.361 210.096C170.785 210.252 171.099 210.488 171.304 210.804C171.509 211.119 171.611 211.518 171.611 212C171.611 212.326 171.549 212.61 171.426 212.854C171.302 213.099 171.139 213.305 170.938 213.475C170.736 213.644 170.518 213.782 170.283 213.89L172.383 217H170.703L168.999 214.261H168.193V217H166.68V209.861H168.76ZM168.652 211.102H168.193V213.03H168.682C169.183 213.03 169.541 212.947 169.756 212.781C169.974 212.612 170.083 212.365 170.083 212.039C170.083 211.701 169.966 211.46 169.731 211.316C169.5 211.173 169.141 211.102 168.652 211.102ZM180.761 213.421C180.761 213.971 180.692 214.472 180.556 214.925C180.419 215.374 180.211 215.761 179.931 216.087C179.654 216.412 179.302 216.663 178.876 216.839C178.45 217.011 177.945 217.098 177.362 217.098C176.78 217.098 176.275 217.011 175.849 216.839C175.422 216.663 175.069 216.412 174.789 216.087C174.512 215.761 174.306 215.372 174.169 214.92C174.032 214.467 173.964 213.965 173.964 213.411C173.964 212.672 174.084 212.029 174.325 211.482C174.569 210.932 174.944 210.506 175.448 210.203C175.953 209.9 176.594 209.749 177.372 209.749C178.147 209.749 178.783 209.9 179.281 210.203C179.783 210.506 180.154 210.932 180.395 211.482C180.639 212.033 180.761 212.679 180.761 213.421ZM175.551 213.421C175.551 213.919 175.613 214.349 175.736 214.71C175.863 215.068 176.06 215.345 176.327 215.54C176.594 215.732 176.939 215.828 177.362 215.828C177.792 215.828 178.14 215.732 178.407 215.54C178.674 215.345 178.868 215.068 178.988 214.71C179.112 214.349 179.174 213.919 179.174 213.421C179.174 212.672 179.034 212.083 178.754 211.653C178.474 211.224 178.013 211.009 177.372 211.009C176.946 211.009 176.597 211.106 176.327 211.302C176.06 211.494 175.863 211.771 175.736 212.132C175.613 212.49 175.551 212.92 175.551 213.421ZM184.729 217H183.24V209.861H187.332V211.102H184.729V212.942H187.151V214.178H184.729V217ZM189.729 217V209.861H191.242V217H189.729ZM194.039 217V209.861H195.553V215.75H198.448V217H194.039ZM204.805 217H200.693V209.861H204.805V211.102H202.207V212.669H204.624V213.909H202.207V215.75H204.805V217ZM213.177 209.861C214.098 209.861 214.77 210.06 215.193 210.457C215.617 210.851 215.828 211.395 215.828 212.088C215.828 212.4 215.781 212.7 215.687 212.986C215.592 213.27 215.438 213.522 215.223 213.743C215.011 213.965 214.728 214.14 214.373 214.271C214.018 214.397 213.58 214.461 213.06 214.461H212.41V217H210.896V209.861H213.177ZM213.099 211.102H212.41V213.221H212.908C213.191 213.221 213.437 213.183 213.646 213.108C213.854 213.034 214.015 212.916 214.129 212.757C214.243 212.597 214.3 212.392 214.3 212.142C214.3 211.79 214.202 211.53 214.007 211.36C213.812 211.188 213.509 211.102 213.099 211.102ZM218.176 217V209.861H219.689V217H218.176ZM225.519 211.019C225.229 211.019 224.972 211.076 224.747 211.189C224.526 211.3 224.339 211.461 224.186 211.673C224.036 211.884 223.922 212.14 223.844 212.439C223.766 212.739 223.727 213.076 223.727 213.45C223.727 213.955 223.788 214.386 223.912 214.744C224.039 215.099 224.234 215.371 224.498 215.56C224.762 215.745 225.102 215.838 225.519 215.838C225.808 215.838 226.098 215.805 226.388 215.74C226.681 215.675 226.998 215.582 227.34 215.462V216.731C227.024 216.862 226.713 216.954 226.407 217.01C226.101 217.068 225.758 217.098 225.377 217.098C224.641 217.098 224.036 216.946 223.561 216.644C223.089 216.338 222.739 215.911 222.511 215.364C222.283 214.814 222.169 214.173 222.169 213.44C222.169 212.9 222.242 212.405 222.389 211.956C222.535 211.507 222.75 211.118 223.033 210.789C223.316 210.46 223.666 210.206 224.083 210.027C224.5 209.848 224.978 209.759 225.519 209.759C225.873 209.759 226.228 209.804 226.583 209.896C226.941 209.983 227.283 210.105 227.608 210.262L227.12 211.492C226.853 211.365 226.585 211.255 226.314 211.16C226.044 211.066 225.779 211.019 225.519 211.019ZM232.617 217H231.104V211.121H229.165V209.861H234.556V211.121H232.617V217ZM242.465 209.861V214.48C242.465 214.972 242.356 215.416 242.138 215.813C241.923 216.207 241.596 216.52 241.156 216.751C240.72 216.982 240.17 217.098 239.506 217.098C238.562 217.098 237.842 216.857 237.348 216.375C236.853 215.893 236.605 215.255 236.605 214.461V209.861H238.114V214.231C238.114 214.821 238.235 215.234 238.476 215.472C238.716 215.709 239.073 215.828 239.545 215.828C239.877 215.828 240.146 215.771 240.351 215.657C240.559 215.543 240.712 215.368 240.81 215.13C240.907 214.892 240.956 214.59 240.956 214.222V209.861H242.465ZM247.293 209.861C247.941 209.861 248.475 209.939 248.895 210.096C249.318 210.252 249.632 210.488 249.837 210.804C250.042 211.119 250.145 211.518 250.145 212C250.145 212.326 250.083 212.61 249.959 212.854C249.835 213.099 249.673 213.305 249.471 213.475C249.269 213.644 249.051 213.782 248.816 213.89L250.916 217H249.236L247.532 214.261H246.727V217H245.213V209.861H247.293ZM247.186 211.102H246.727V213.03H247.215C247.716 213.03 248.074 212.947 248.289 212.781C248.507 212.612 248.616 212.365 248.616 212.039C248.616 211.701 248.499 211.46 248.265 211.316C248.034 211.173 247.674 211.102 247.186 211.102ZM256.926 217H252.814V209.861H256.926V211.102H254.328V212.669H256.745V213.909H254.328V215.75H256.926V217Z" fill="white"/> <rect x="24" y="345" width="345" height="52" rx="26" fill="#040415"/> <path d="M190.013 376H187.996L183.102 368.022H183.04C183.058 368.291 183.074 368.576 183.088 368.877C183.106 369.178 183.12 369.488 183.129 369.807C183.143 370.126 183.154 370.449 183.163 370.777V376H181.673V366.006H183.676L188.563 373.929H188.611C188.602 373.696 188.591 373.43 188.577 373.129C188.563 372.828 188.55 372.518 188.536 372.199C188.527 371.876 188.52 371.563 188.516 371.263V366.006H190.013V376ZM195.488 368.289C196.163 368.289 196.742 368.428 197.225 368.706C197.708 368.984 198.079 369.378 198.339 369.889C198.599 370.399 198.729 371.01 198.729 371.721V372.582H193.677C193.695 373.316 193.891 373.881 194.265 374.277C194.643 374.674 195.172 374.872 195.851 374.872C196.334 374.872 196.767 374.826 197.149 374.735C197.537 374.64 197.936 374.501 198.346 374.318V375.624C197.967 375.802 197.582 375.932 197.19 376.014C196.799 376.096 196.329 376.137 195.782 376.137C195.039 376.137 194.385 375.993 193.82 375.706C193.26 375.414 192.82 374.981 192.501 374.407C192.187 373.833 192.029 373.12 192.029 372.268C192.029 371.42 192.173 370.7 192.46 370.107C192.747 369.515 193.15 369.064 193.67 368.754C194.189 368.444 194.796 368.289 195.488 368.289ZM195.488 369.499C194.982 369.499 194.572 369.663 194.258 369.991C193.948 370.319 193.766 370.8 193.711 371.434H197.156C197.152 371.055 197.088 370.72 196.965 370.429C196.846 370.137 196.664 369.909 196.418 369.745C196.176 369.581 195.867 369.499 195.488 369.499ZM202.215 372.131L199.686 368.433H201.518L203.247 371.092L204.983 368.433H206.809L204.266 372.131L206.938 376H205.1L203.247 373.163L201.388 376H199.562L202.215 372.131ZM211.067 374.838C211.277 374.838 211.484 374.82 211.689 374.783C211.895 374.742 212.081 374.694 212.25 374.64V375.856C212.072 375.934 211.842 376 211.56 376.055C211.277 376.109 210.983 376.137 210.678 376.137C210.249 376.137 209.864 376.066 209.522 375.925C209.181 375.779 208.91 375.531 208.709 375.18C208.508 374.829 208.408 374.343 208.408 373.724V369.656H207.376V368.938L208.483 368.371L209.01 366.751H210.021V368.433H212.188V369.656H210.021V373.703C210.021 374.086 210.117 374.371 210.309 374.558C210.5 374.744 210.753 374.838 211.067 374.838Z" fill="white"/> <g clip-path="url(#clip0_737_8138)"> <path d="M258 114.5C258 134.005 248.846 151.389 234.567 162.656C223.982 171.01 210.581 176 196 176C181.42 176 168.019 171.01 157.433 162.656C143.154 151.389 134 134.005 134 114.5C134 80.5352 161.76 53 196 53C230.241 53 258 80.5352 258 114.5Z" fill="#EEEEEE"/> <path d="M196 134.105C209.308 134.105 220.096 123.404 220.096 110.203C220.096 97.0025 209.308 86.3013 196 86.3013C182.692 86.3013 171.904 97.0025 171.904 110.203C171.904 123.404 182.692 134.105 196 134.105Z" fill="#8E8D8D"/> <path d="M234.567 162.656C223.981 171.01 210.581 176 196 176C181.42 176 168.019 171.01 157.433 162.656C165.184 151.36 179.555 143.773 196 143.773C212.445 143.773 226.817 151.358 234.567 162.656Z" fill="#8E8D8D"/> </g> <defs> <clipPath id="clip0_737_8138"> <rect width="124" height="123" fill="white" transform="translate(134 53)"/> </clipPath> </defs> </svg>